<svg version="1.1" viewBox="0.0 0.0 960.0 720.0" fill="none" stroke="none" stroke-linecap="square" stroke-miterlimit="10" xmlns:xlink="http://www.w3.org/1999/xlink" xmlns="http://www.w3.org/2000/svg"><clipPath id="p.0"><path d="m0 0l960.0 0l0 720.0l-960.0 0l0 -720.0z" clip-rule="nonzero"/></clipPath><g clip-path="url(#p.0)"><path fill="#000000" fill-opacity="0.0" d="m0 0l960.0 0l0 720.0l-960.0 0z" fill-rule="evenodd"/><path fill="#000000" fill-opacity="0.0" d="m480.03342 163.84746l196.12595 196.12599l-196.18893 196.18896l-196.126 -196.12598z" fill-rule="evenodd"/><path stroke="#000000" stroke-width="8.0" stroke-linejoin="round" stroke-linecap="butt" d="m480.03342 163.84746l196.12595 196.12599l-196.18893 196.18896l-196.126 -196.12598z" fill-rule="evenodd"/><path fill="#000000" fill-opacity="0.0" d="m381.9389 261.94196l196.12598 196.12598" fill-rule="evenodd"/><path stroke="#000000" stroke-width="4.0" stroke-linejoin="round" stroke-linecap="butt" d="m381.9389 261.94196l196.12598 196.12598" fill-rule="evenodd"/><path fill="#000000" fill-opacity="0.0" d="m578.0964 261.91046l-196.18896 196.18896" fill-rule="evenodd"/><path stroke="#000000" stroke-width="4.0" stroke-linejoin="round" stroke-linecap="butt" d="m578.0964 261.91046l-196.18896 196.18896" fill-rule="evenodd"/><path fill="#000000" fill-opacity="0.0" d="m283.84515 360.0l-277.44882 -277.44882" fill-rule="evenodd"/><path stroke="#000000" stroke-width="4.0" stroke-linejoin="round" stroke-linecap="butt" d="m283.84515 360.0l-277.44882 -277.44882" fill-rule="evenodd"/><path fill="#000000" fill-opacity="0.0" d="m676.16003 359.9519l277.54333 -277.35434" fill-rule="evenodd"/><path stroke="#000000" stroke-width="4.0" stroke-linejoin="round" stroke-linecap="butt" d="m676.16003 359.9519l277.54333 -277.35434" fill-rule="evenodd"/><path fill="#000000" fill-opacity="0.0" d="m806.9134 509.88452l769.8582 0l0 89.82678l-769.8582 0z" fill-rule="evenodd"/><path fill="#000000" fill-opacity="0.0" d="m283.84515 69.44882l392.31494 0l0 67.2126l-392.31494 0z" fill-rule="evenodd"/><path fill="#000000" d="m321.97528 128.57387l0 -39.140625l-4.40625 0q-1.171875 0 -1.6875 -0.453125q-0.5 -0.453125 -0.5 -1.1875q0 -0.75 0.5 -1.1875q0.515625 -0.453125 1.6875 -0.453125l20.625 0q6.125 0 9.96875 3.53125q3.859375 3.53125 3.859375 8.296875q0 6.015625 -6.453125 9.734375q5.125 1.828125 7.5 4.875q2.390625 3.046875 2.390625 6.71875q0 3.28125 -1.5625 6.0q-1.5625 2.71875 -4.796875 4.640625q-3.21875 1.90625 -7.0 1.90625l-24.53125 0q-1.171875 0 -1.6875 -0.46875q-0.5 -0.46875 -0.5 -1.171875q0 -0.75 0.5 -1.1875q0.515625 -0.453125 1.6875 -0.453125l4.40625 0zm3.28125 -22.109375l11.609375 0q3.703125 0 6.796875 -1.375q2.375 -1.09375 3.703125 -3.15625q1.328125 -2.078125 1.328125 -4.21875q0 -3.09375 -2.890625 -5.6875q-2.890625 -2.59375 -7.53125 -2.59375l-13.015625 0l0 17.03125zm0 22.109375l16.609375 0q3.15625 0 5.5 -1.40625q2.34375 -1.40625 3.546875 -3.46875q1.21875 -2.078125 1.21875 -4.3125q0 -2.5 -1.734375 -4.84375q-1.734375 -2.34375 -4.828125 -3.546875q-3.078125 -1.21875 -8.515625 -1.21875l-11.796875 0l0 18.796875zm78.78906 -19.453125q0 6.5625 -2.65625 12.171875q-2.65625 5.59375 -7.328125 8.734375q-4.65625 3.125 -10.015625 3.125q-7.921875 0 -13.96875 -6.734375q-6.03125 -6.75 -6.03125 -17.296875q0 -10.59375 6.03125 -17.3125q6.046875 -6.71875 13.96875 -6.71875q5.359375 0 10.0 3.125q4.65625 3.125 7.328125 8.71875q2.671875 5.578125 2.671875 12.1875zm-3.3125 0q0 -8.015625 -4.65625 -14.375q-4.640625 -6.375 -12.03125 -6.375q-6.90625 0 -11.8125 6.078125q-4.90625 6.078125 -4.90625 14.671875q0 9.140625 5.140625 14.9375q5.140625 5.796875 11.578125 5.796875q7.390625 0 12.03125 -6.34375q4.65625 -6.34375 4.65625 -14.390625zm33.242188 -0.671875l15.578125 20.125l1.25 0q1.171875 0 1.671875 0.453125q0.515625 0.4375 0.515625 1.1875q0 0.703125 -0.515625 1.171875q-0.5 0.46875 -1.671875 0.46875l-10.546875 0q-1.171875 0 -1.6875 -0.46875q-0.5 -0.46875 -0.5 -1.171875q0 -0.75 0.5 -1.1875q0.515625 -0.453125 1.6875 -0.453125l5.234375 0l-13.546875 -17.421875l-13.40625 17.421875l5.234375 0q1.171875 0 1.671875 0.453125q0.515625 0.4375 0.515625 1.1875q0 0.703125 -0.515625 1.171875q-0.5 0.46875 -1.671875 0.46875l-10.46875 0q-1.171875 0 -1.6875 -0.46875q-0.5 -0.46875 -0.5 -1.171875q0 -0.546875 0.3125 -0.96875q0.3125 -0.4375 0.703125 -0.546875q0.390625 -0.125 2.390625 -0.125l15.390625 -20.125l-14.6875 -19.015625l-1.21875 0q-1.171875 0 -1.6875 -0.453125q-0.5 -0.453125 -0.5 -1.1875q0 -0.75 0.5 -1.1875q0.515625 -0.453125 1.6875 -0.453125l8.953125 0q1.203125 0 1.703125 0.453125q0.515625 0.4375 0.515625 1.1875q0 0.734375 -0.515625 1.1875q-0.5 0.453125 -1.703125 0.453125l-3.671875 0l12.65625 16.359375l12.578125 -16.359375l-3.671875 0q-1.21875 0 -1.734375 -0.453125q-0.5 -0.453125 -0.5 -1.1875q0 -0.75 0.5 -1.1875q0.515625 -0.453125 1.734375 -0.453125l8.984375 0q1.171875 0 1.671875 0.453125q0.515625 0.4375 0.515625 1.1875q0 0.734375 -0.515625 1.1875q-0.5 0.453125 -1.671875 0.453125l-1.25 0l-14.609375 19.015625zm32.023438 20.125l0 -39.140625l-4.40625 0q-1.171875 0 -1.6875 -0.453125q-0.5 -0.453125 -0.5 -1.1875q0 -0.75 0.5 -1.1875q0.515625 -0.453125 1.6875 -0.453125l20.625 0q6.125 0 9.96875 3.53125q3.859375 3.53125 3.859375 8.296875q0 6.015625 -6.453125 9.734375q5.125 1.828125 7.5 4.875q2.390625 3.046875 2.390625 6.71875q0 3.28125 -1.5625 6.0q-1.5625 2.71875 -4.796875 4.640625q-3.21875 1.90625 -7.0 1.90625l-24.53125 0q-1.171875 0 -1.6875 -0.46875q-0.5 -0.46875 -0.5 -1.171875q0 -0.75 0.5 -1.1875q0.515625 -0.453125 1.6875 -0.453125l4.40625 0zm3.28125 -22.109375l11.609375 0q3.703125 0 6.796875 -1.375q2.375 -1.09375 3.703125 -3.15625q1.328125 -2.078125 1.328125 -4.21875q0 -3.09375 -2.890625 -5.6875q-2.890625 -2.59375 -7.53125 -2.59375l-13.015625 0l0 17.03125zm0 22.109375l16.609375 0q3.15625 0 5.5 -1.40625q2.34375 -1.40625 3.546875 -3.46875q1.21875 -2.078125 1.21875 -4.3125q0 -2.5 -1.734375 -4.84375q-1.734375 -2.34375 -4.828125 -3.546875q-3.078125 -1.21875 -8.515625 -1.21875l-11.796875 0l0 18.796875zm69.53906 -12.0l-21.5625 0l-4.421875 12.0l6.296875 0q1.171875 0 1.671875 0.453125q0.515625 0.4375 0.515625 1.1875q0 0.703125 -0.515625 1.171875q-0.5 0.46875 -1.671875 0.46875l-12.265625 0q-1.171875 0 -1.6875 -0.46875q-0.5 -0.46875 -0.5 -1.171875q0 -0.75 0.5 -1.1875q0.515625 -0.453125 1.6875 -0.453125l2.53125 0l14.5 -39.140625l-9.6875 0q-1.171875 0 -1.6875 -0.453125q-0.5 -0.453125 -0.5 -1.1875q0 -0.75 0.5 -1.1875q0.515625 -0.453125 1.6875 -0.453125l16.515625 0l16.015625 42.421875l2.546875 0q1.171875 0 1.671875 0.453125q0.515625 0.4375 0.515625 1.1875q0 0.703125 -0.515625 1.171875q-0.5 0.46875 -1.671875 0.46875l-12.234375 0q-1.203125 0 -1.71875 -0.46875q-0.5 -0.46875 -0.5 -1.171875q0 -0.75 0.5 -1.1875q0.515625 -0.453125 1.71875 -0.453125l6.25 0l-4.484375 -12.0zm-1.25 -3.28125l-9.0625 -23.859375l-1.21875 0l-8.78125 23.859375l19.0625 0zm32.773438 -23.859375l0 39.140625l21.796875 0l0 -13.046875q0 -1.171875 0.46875 -1.671875q0.46875 -0.515625 1.203125 -0.515625q0.703125 0 1.171875 0.484375q0.46875 0.484375 0.46875 1.703125l0 16.328125l-36.25 0q-1.171875 0 -1.6875 -0.46875q-0.5 -0.46875 -0.5 -1.171875q0 -0.75 0.5 -1.1875q0.515625 -0.453125 1.6875 -0.453125l7.8125 0l0 -39.140625l-7.8125 0q-1.171875 0 -1.6875 -0.453125q-0.5 -0.453125 -0.5 -1.1875q0 -0.75 0.5 -1.1875q0.515625 -0.453125 1.6875 -0.453125l18.953125 0q1.171875 0 1.671875 0.453125q0.515625 0.4375 0.515625 1.1875q0 0.734375 -0.515625 1.1875q-0.5 0.453125 -1.671875 0.453125l-7.8125 0zm48.007812 0l0 39.140625l21.796875 0l0 -13.046875q0 -1.171875 0.46875 -1.671875q0.46875 -0.515625 1.203125 -0.515625q0.703125 0 1.171875 0.484375q0.46875 0.484375 0.46875 1.703125l0 16.328125l-36.25 0q-1.171875 0 -1.6875 -0.46875q-0.5 -0.46875 -0.5 -1.171875q0 -0.75 0.5 -1.1875q0.515625 -0.453125 1.6875 -0.453125l7.8125 0l0 -39.140625l-7.8125 0q-1.171875 0 -1.6875 -0.453125q-0.5 -0.453125 -0.5 -1.1875q0 -0.75 0.5 -1.1875q0.515625 -0.453125 1.6875 -0.453125l18.953125 0q1.171875 0 1.671875 0.453125q0.515625 0.4375 0.515625 1.1875q0 0.734375 -0.515625 1.1875q-0.5 0.453125 -1.671875 0.453125l-7.8125 0z" fill-rule="nonzero"/></g></svg>